<svg width="111" height="31" viewBox="0 0 111 31" fill="none" xmlns="http://www.w3.org/2000/svg">
<path d="M0.92 24V1.6H10.04C14.904 1.6 18.136 4.512 18.136 9.056C18.136 13.568 14.904 16.48 10.04 16.48H5.72V24H0.92ZM9.592 5.6H5.72V12.48H9.592C11.832 12.48 13.272 11.168 13.272 9.056C13.272 6.912 11.832 5.6 9.592 5.6ZM22.7463 5.792C21.2743 5.792 20.1223 4.704 20.1223 3.264C20.1223 1.792 21.2743 0.703999 22.7463 0.703999C24.2183 0.703999 25.3703 1.792 25.3703 3.264C25.3703 4.704 24.2183 5.792 22.7463 5.792ZM20.4743 24V7.552H25.0183V24H20.4743ZM28.1305 24V1.6H32.6425V24H28.1305ZM35.7868 24V1.6H40.2988V24H35.7868ZM43.155 16.672H46.035C46.259 19.68 48.595 21.664 52.019 21.664C55.027 21.664 57.171 20.288 57.171 17.856C57.171 15.072 54.419 14.496 51.027 13.92C47.411 13.312 43.699 12.128 43.699 7.776C43.699 3.968 46.803 1.408 51.347 1.408C56.339 1.408 59.411 4.192 59.667 8.224H56.787C56.467 5.632 54.387 3.936 51.347 3.936C48.435 3.936 46.483 5.216 46.483 7.616C46.483 10.304 49.203 10.848 52.563 11.424C56.211 12.032 59.955 13.248 59.955 17.6C59.955 21.472 56.691 24.192 51.987 24.192C46.515 24.192 43.315 21.088 43.155 16.672ZM67.5905 24.096L61.2225 7.68H64.0065L69.0305 20.704L73.8945 7.68H76.6785L69.1585 26.752C68.1345 29.376 67.5265 30.4 65.2225 30.4H62.0865V28H64.4225C65.9265 28 66.1825 27.616 66.7905 26.08L67.5905 24.096ZM86.6358 7.488C90.3158 7.488 93.2278 9.504 93.2278 14.912V24H90.6038V15.072C90.6038 11.68 89.0358 9.888 86.1878 9.888C83.1158 9.888 81.2598 12.16 81.2598 15.84V24H78.6358V7.68H80.9078L81.2598 9.888C82.2198 8.64 83.8838 7.488 86.6358 7.488ZM103.714 24.192C98.9458 24.192 95.8098 20.96 95.8098 15.872C95.8098 10.88 99.0418 7.488 103.778 7.488C107.778 7.488 110.306 9.728 110.978 13.312H108.226C107.746 11.136 106.146 9.824 103.746 9.824C100.61 9.824 98.4978 12.32 98.4978 15.872C98.4978 19.424 100.61 21.856 103.746 21.856C106.082 21.856 107.682 20.512 108.194 18.432H110.978C110.338 21.952 107.682 24.192 103.714 24.192Z" fill="black"/>
</svg>
